# xmcd
#
# Track frame offsets:
#	200
#	10575
#	23095
#	33187
#	43145
#	55717
#	64360
#	75502
#	85315
#	96710
#	106350
#	124697
#	135645
#	147097
#	159505
#	166137
#	178907
#	186437
#	198290
#	209735
#	218845
#	229792
#	239592
#	253327
#
# Disc length: 3516 seconds
# Revision: 0
# Processed by: cddbd v1.5.2PL0 Copyright (c) Steve Scherf et al.
# Submitted via: dBpowerAMP V12.0
#
DISCID=5b0dba18
DTITLE=Various Artist - Goin' Up Copper Creek
DYEAR=1900
DGENRE=Bluegrass
TTITLE0=Ralph Stanley - Way Down Deep
TTITLE1=The Johnson Mountain Boys - Sittin' Alone In The Moonlight
TTITLE2=Rickey Wasson - You Go To Your Church
TTITLE3=Per Christiphersson and Thomas Haglund - Home Sweet Home
TTITLE4=Gary and Jim Brewer - Yonder Comes A Sucker
TTITLE5=Charlie Cline - John Henry
TTITLE6=Ralph Stanley - Two Flowers Blooming
TTITLE7=Gary and Jim Brewer - Baby, I'm All Washed Up With You
TTITLE8=The Johnson Mountain Boys - No Depression
TTITLE9=Charlie Cline - Black Mountain Rag
TTITLE10=Rickey Wasson - Where We'll Never Grow Old
TTITLE11=Per Christiphersson and Thomas Haglund - Old Folks
TTITLE12=Ralph Stanley - Long Gone
TTITLE13=Gary and Jim Brewer - I Have No One To Love Me
TTITLE14=Charlie Cline - Big Roan
TTITLE15=Rickey Wasson - Will The Roses Bloom In Heaven
TTITLE16=Per Christiphersson and Thomas Haglund - Billy In The Lowground
TTITLE17=The Johnson Mountain Boys - Where We'll Never Die
TTITLE18=Ralph Stanley - My Rose Of Old Kentucky
TTITLE19=The Johnson Mountain Boys - Eddie's Hoedown
TTITLE20=Rickey Wasson - Paul And Silas
TTITLE21=Charlie Cline - Thumbing
TTITLE22=Gary and Jim Brewer - Chewing Gum
TTITLE23=Per Christiphersson and Thomas Haglund - Wild Indian
EXTD=
EXTT0=
EXTT1=
EXTT2=
EXTT3=
EXTT4=
EXTT5=
EXTT6=
EXTT7=
EXTT8=
EXTT9=
EXTT10=
EXTT11=
EXTT12=
EXTT13=
EXTT14=
EXTT15=
EXTT16=
EXTT17=
EXTT18=
EXTT19=
EXTT20=
EXTT21=
EXTT22=
EXTT23=
PLAYORDER=
